<?xml version="1.0" standalone="no"?>
<!DOCTYPE svg PUBLIC "-//W3C//DTD SVG 20010904//EN"
 "http://www.w3.org/TR/2001/REC-SVG-20010904/DTD/svg10.dtd">
<svg version="1.0" xmlns="http://www.w3.org/2000/svg"
 width="100%" height="100%" viewBox="0 0 406.000000 270.000000"
 preserveAspectRatio="xMidYMid meet">

<g transform="translate(0.000000,270.000000) scale(0.100000,-0.100000)"
fill="#000000" stroke="none">
<path d="M1580 2669 c-226 -33 -425 -215 -485 -444 -19 -73 -19 -223 -1 -290
39 -147 97 -225 307 -420 95 -88 283 -262 416 -387 261 -244 282 -258 354
-238 19 5 44 18 55 28 525 486 788 733 824 776 91 108 140 243 140 381 0 161
-52 293 -161 409 -122 130 -258 190 -435 190 -97 0 -105 -1 -177 -37 -94 -46
-188 -144 -243 -252 l-38 -74 -32 59 c-93 174 -208 273 -349 299 -65 12 -95
12 -175 0z m215 -118 c106 -49 192 -155 256 -313 57 -142 108 -143 166 -4 67
163 148 266 245 311 108 51 280 27 405 -55 183 -121 269 -373 194 -570 -46
-120 -71 -148 -498 -546 -227 -211 -420 -384 -428 -384 -18 0 -816 738 -851
787 -12 16 -36 57 -53 91 -130 258 7 582 289 679 85 29 216 31 275 4z"/>
<path d="M353 1060 c-15 -16 -46 -36 -68 -44 -33 -11 -40 -18 -37 -37 1 -13
11 -33 22 -44 28 -30 25 -53 -29 -210 l-47 -140 -80 -5 c-77 -5 -79 -6 -76
-30 2 -24 23 -46 90 -97 25 -19 30 -31 35 -84 18 -166 131 -285 318 -335 75
-19 263 -23 325 -6 56 16 81 44 66 77 -22 47 -54 59 -155 54 -234 -10 -287 1
-335 72 -20 29 -23 44 -20 96 2 35 8 67 14 73 5 5 75 19 154 30 158 23 188 31
231 68 36 30 38 70 6 100 -29 28 -67 28 -143 1 -80 -28 -204 -38 -204 -17 0
28 80 267 92 274 7 4 61 9 120 10 206 5 403 29 471 55 50 21 28 69 -41 89 -20
5 -129 10 -242 10 -219 0 -257 6 -310 45 -51 37 -119 35 -157 -5z"/>
<path d="M3157 844 c-23 -13 -26 -18 -16 -35 6 -12 31 -30 56 -41 74 -33 140
-8 113 42 -26 48 -97 64 -153 34z"/>
<path d="M1506 683 c-3 -11 -5 -102 -4 -204 l3 -184 -30 -60 c-38 -76 -56 -80
-85 -20 -17 36 -23 67 -25 151 -3 75 -8 112 -19 130 -47 71 -165 77 -182 8 -9
-34 32 -297 51 -334 20 -39 77 -95 116 -116 42 -21 125 -29 176 -15 114 31
173 154 173 360 0 196 -39 286 -128 298 -33 4 -41 2 -46 -14z"/>
<path d="M3685 696 c-5 -3 -27 -7 -48 -11 -46 -7 -77 -36 -77 -70 0 -37 27
-45 148 -45 85 0 112 -3 122 -15 23 -27 4 -41 -74 -53 -42 -6 -91 -19 -108
-28 -75 -39 -168 -169 -168 -237 0 -89 72 -153 202 -177 70 -14 123 -3 174 36
53 41 63 42 94 9 18 -19 33 -25 55 -23 l30 3 3 120 c7 290 -36 401 -179 464
-41 18 -152 35 -174 27z m165 -314 c33 -27 39 -108 11 -144 -26 -33 -134 -88
-173 -88 -92 0 -27 175 87 234 38 20 48 20 75 -2z"/>
<path d="M1932 670 c-12 -5 -26 -20 -32 -32 -13 -32 -50 -313 -57 -436 -7
-115 0 -132 63 -152 71 -24 78 -12 115 195 24 138 35 154 121 180 120 35 136
19 145 -150 7 -129 18 -155 69 -155 63 0 94 50 94 153 0 126 -45 234 -120 285
-32 22 -42 24 -130 19 -52 -3 -101 -7 -109 -9 -9 -2 -14 7 -15 25 -3 56 -87
101 -144 77z"/>
<path d="M2655 606 c-95 -23 -122 -49 -141 -138 -17 -82 -17 -150 0 -192 34
-82 138 -156 220 -156 98 0 196 69 255 180 56 104 43 195 -35 255 -80 61 -185
79 -299 51z m159 -87 c72 -63 66 -139 -18 -225 -74 -77 -100 -71 -115 27 -7
44 -4 65 17 128 13 42 29 82 35 89 16 20 44 14 81 -19z"/>
<path d="M3181 561 c-22 -14 -28 -81 -23 -238 l5 -148 32 -32 c34 -34 99 -53
117 -35 6 6 12 74 14 163 2 83 7 156 13 162 14 14 -15 86 -46 115 -25 23 -85
30 -112 13z"/>
</g>
</svg>
